<svg xmlns="http://www.w3.org/2000/svg" viewBox="0 0 100 100">
  <defs>
    <mask id="hole">
      <rect width="100" height="100" fill="white"/>
      <circle cx="50" cy="50" r="22" fill="black"/>
    </mask>
  </defs>
  <g mask="url(#hole)">
    <circle cx="50" cy="50" r="40" fill="white"/>
    <g fill="white" transform="translate(50,50)">
      <rect x="-4" y="-50" width="8" height="16" rx="2"/>
      <rect x="-4" y="34" width="8" height="16" rx="2"/>
      <rect x="34" y="-4" width="16" height="8" rx="2"/>
      <rect x="-50" y="-4" width="16" height="8" rx="2"/>
      <g transform="rotate(30)">
        <rect x="-4" y="-50" width="8" height="16" rx="2"/>
        <rect x="-4" y="34" width="8" height="16" rx="2"/>
      </g>
      <g transform="rotate(60)">
        <rect x="-4" y="-50" width="8" height="16" rx="2"/>
        <rect x="-4" y="34" width="8" height="16" rx="2"/>
      </g>
      <g transform="rotate(90)">
        <rect x="-4" y="-50" width="8" height="16" rx="2"/>
        <rect x="-4" y="34" width="8" height="16" rx="2"/>
      </g>
      <g transform="rotate(120)">
        <rect x="-4" y="-50" width="8" height="16" rx="2"/>
        <rect x="-4" y="34" width="8" height="16" rx="2"/>
      </g>
      <g transform="rotate(150)">
        <rect x="-4" y="-50" width="8" height="16" rx="2"/>
        <rect x="-4" y="34" width="8" height="16" rx="2"/>
      </g>
    </g>
  </g>
</svg>

